# xmcd
#
# Track frame offsets:
# 150
# 16018
# 29905
# 45478
# 60846
# 70419
# 90596
# 106595
# 121840
# 139526
# 160252
#
# Disc length: 2280 seconds
#
#
# Revision: 0
# Processed by: cddbd v1.5.2PL0 Copyright (c) Steve Scherf et al.
# Submitted via: FreeRIP 2.96 
#
DISCID=8008e60b
DTITLE=Anni Piper - Texas Hold 'Em
DYEAR=2007
DGENRE=Blues
TTITLE0=Mystery Of Love
TTITLE1=Texas Hold 'Em
TTITLE2=Love's Truly Blind
TTITLE3=Blues Before Sunrise
TTITLE4=Playing Your Bottom Line
TTITLE5=The More I Keep On Losin'
TTITLE6=Watchdog
TTITLE7=Little Redhead
TTITLE8=Empty Arms
TTITLE9=Untrue
TTITLE10=Tailor Made
EXTD=Line-up/Musicians:\n\n- Anni Piper - vocals, bass\n- Richard Steels - guitars\n- Dennis Wood - drums\n\nGuest musicians:\n\n- Richard 'Flame' Piper - rhythm guitar on 'Tailor Made'\n- Jeff Cripps - drums on 'Tailor Made'\n- Lindsay Martin - violin\n
EXTD=Rupert Hyde - Hammond organ\n\nCountry: Australia
EXTT0=
EXTT1=
EXTT2=
EXTT3=
EXTT4=
EXTT5=
EXTT6=
EXTT7=
EXTT8=
EXTT9=
EXTT10=
PLAYORDER=
